<svg width="24" height="24" viewBox="0 0 24 24" fill="none" xmlns="http://www.w3.org/2000/svg">
<path d="M19.864 8.46488C20.0047 7.97104 20.0352 7.45231 19.9534 6.94538C19.8715 6.43845 19.6792 5.95571 19.3902 5.53129C19.1011 5.10687 18.7223 4.75115 18.2806 4.48928C17.8389 4.22742 17.3451 4.06581 16.834 4.01588C16.6289 3.42749 16.246 2.91741 15.7383 2.55623C15.2306 2.19504 14.6231 2.00062 14 1.99988C13.2596 2.00239 12.5466 2.28044 12 2.77988C11.4534 2.28044 10.7404 2.00239 10 1.99988C8.699 1.99988 7.59 2.83088 7.175 4.01488C6.66303 4.06356 6.16805 4.2243 5.72517 4.48571C5.28228 4.74711 4.90235 5.10278 4.61232 5.52747C4.32229 5.95216 4.12927 6.43547 4.04695 6.94311C3.96463 7.45076 3.99503 7.9703 4.136 8.46488C3.49403 8.80643 2.9565 9.31539 2.58043 9.93777C2.20437 10.5601 2.0038 11.2727 2 11.9999C2 13.0749 2.428 14.0859 3.172 14.8319C3.05816 15.2108 3.00022 15.6043 3 15.9999C3 17.9569 4.412 19.5899 6.306 19.9339C6.58405 20.5484 7.03303 21.0699 7.59938 21.4363C8.16572 21.8026 8.82551 21.9983 9.5 21.9999C10.479 21.9999 11.364 21.5929 12 20.9409C12.3246 21.2757 12.7132 21.542 13.1426 21.7239C13.572 21.9058 14.0336 21.9997 14.5 21.9999C15.1733 21.9986 15.832 21.8038 16.3976 21.4385C16.9632 21.0733 17.4119 20.553 17.69 19.9399C18.248 19.8415 18.7787 19.6259 19.2472 19.3073C19.7157 18.9887 20.1113 18.5744 20.4078 18.0916C20.7044 17.6089 20.8952 17.0687 20.9676 16.5068C21.04 15.9449 20.9925 15.374 20.828 14.8319C21.1998 14.46 21.4947 14.0184 21.6958 13.5325C21.8969 13.0466 22.0002 12.5258 22 11.9999C21.9962 11.2727 21.7956 10.5601 21.4196 9.93777C21.0435 9.31539 20.506 8.80643 19.864 8.46488ZM9.5 19.9999C8.789 19.9999 8.17 19.4959 8.03 18.8019L7.818 17.9999H7C5.897 17.9999 5 17.1029 5 15.9999C5 15.6479 5.085 15.3179 5.253 15.0189L5.709 14.2029L4.925 13.6929C4.64178 13.5103 4.40877 13.2597 4.24721 12.964C4.08564 12.6683 4.00065 12.3368 4 11.9999C4 11.0229 4.723 10.1759 5.682 10.0279L7.375 9.76788L6.316 8.42188C6.12741 8.17875 6.01804 7.88357 6.00268 7.57625C5.98732 7.26894 6.06672 6.96432 6.23013 6.7036C6.39355 6.44288 6.63309 6.23864 6.91637 6.11851C7.19964 5.99837 7.51298 5.96813 7.814 6.03188L9 6.20688V4.99988C9 4.73466 9.10536 4.48031 9.29289 4.29277C9.48043 4.10523 9.73478 3.99988 10 3.99988C10.2652 3.99988 10.5196 4.10523 10.7071 4.29277C10.8946 4.48031 11 4.73466 11 4.99988V18.4999C11 19.3269 10.327 19.9999 9.5 19.9999ZM19.075 13.6919L18.291 14.2019L18.747 15.0179C18.915 15.3179 19 15.6479 19 15.9999C19 17.1029 18.103 17.9999 16.95 17.9999H16.132L15.97 18.8019C15.9001 19.1401 15.7157 19.444 15.448 19.6622C15.1802 19.8804 14.8454 19.9997 14.5 19.9999C13.673 19.9999 13 19.3269 13 18.4999V4.99988C13 4.44788 13.448 3.99988 14 3.99988C14.552 3.99988 15 4.44788 15 5.04988V6.25688L16.186 6.03188C16.487 5.96813 16.8004 5.99837 17.0836 6.11851C17.3669 6.23864 17.6065 6.44288 17.7699 6.7036C17.9333 6.96432 18.0127 7.26894 17.9973 7.57625C17.982 7.88357 17.8726 8.17875 17.684 8.42188L16.625 9.76888L18.318 10.0289C18.7865 10.1047 19.2128 10.3446 19.5209 10.7056C19.8289 11.0666 19.9988 11.5253 20 11.9999C20 12.6829 19.654 13.3149 19.075 13.6919Z" fill="#1371FF"/>
</svg>
