<svg width="24" height="24" viewBox="0 0 24 24" fill="none" xmlns="http://www.w3.org/2000/svg">
<path d="M12 1.99988C6.486 1.99988 2 6.48588 2 11.9999C2 17.5139 6.486 21.9999 12 21.9999C17.514 21.9999 22 17.5139 22 11.9999C22 6.48588 17.514 1.99988 12 1.99988ZM12 19.9999C7.589 19.9999 4 16.4109 4 11.9999C4 7.58888 7.589 3.99988 12 3.99988C16.411 3.99988 20 7.58888 20 11.9999C20 16.4109 16.411 19.9999 12 19.9999Z" fill="#1371FF"/>
<path d="M13 5.99988L7 12.9999H11V17.9999L17 10.9999H13V5.99988Z" fill="#1371FF"/>
</svg>
